<svg width="18" height="21" viewBox="0 0 18 21" fill="none" xmlns="http://www.w3.org/2000/svg">
<path d="M6.96318 17.545C7.46309 17.4393 10.5093 17.4393 11.0092 17.545C11.4366 17.6438 11.8987 17.8744 11.8987 18.378C11.8738 18.8574 11.5926 19.2824 11.204 19.5523C10.7001 19.9451 10.1088 20.1939 9.49057 20.2835C9.14868 20.3278 8.81276 20.3288 8.48279 20.2835C7.86362 20.1939 7.27227 19.9451 6.76938 19.5513C6.37978 19.2824 6.09852 18.8574 6.07367 18.378C6.07367 17.8744 6.53582 17.6438 6.96318 17.545ZM9.04522 0.317139C11.1254 0.317139 13.2502 1.30416 14.5125 2.9418C15.3314 3.9963 15.7071 5.04979 15.7071 6.68744V7.11347C15.7071 8.3694 16.039 9.10966 16.7695 9.96273C17.3231 10.5912 17.5 11.3979 17.5 12.2732C17.5 13.1474 17.2128 13.9773 16.6373 14.6511C15.884 15.4588 14.8215 15.9745 13.7372 16.0641C12.1659 16.1981 10.5937 16.3109 9.0005 16.3109C7.40634 16.3109 5.83505 16.2434 4.26375 16.0641C3.17846 15.9745 2.11602 15.4588 1.36367 14.6511C0.78822 13.9773 0.5 13.1474 0.5 12.2732C0.5 11.3979 0.677901 10.5912 1.23049 9.96273C1.98384 9.10966 2.29392 8.3694 2.29392 7.11347V6.68744C2.29392 5.00548 2.71333 3.90566 3.577 2.829C4.86106 1.25884 6.91935 0.317139 8.95577 0.317139H9.04522Z" fill="#6484AA"/>
</svg>
