<svg width="18" height="18" viewBox="0 0 18 18" xmlns="http://www.w3.org/2000/svg">
<path d="M12.6166 0.665985C15.4416 0.665985 17.3332 2.64932 17.3332 5.59932V12.4085C17.3332 15.3501 15.4416 17.3326 12.6166 17.3326H5.39157C2.56657 17.3326 0.666565 15.3501 0.666565 12.4085V5.59932C0.666565 2.64932 2.56657 0.665985 5.39157 0.665985H12.6166ZM8.99156 7.73348C8.59157 7.73348 8.26657 8.06598 8.26657 8.46682V12.1502C8.26657 12.5501 8.59157 12.8751 8.99156 12.8751C9.3999 12.8751 9.7249 12.5501 9.7249 12.1502V8.46682C9.7249 8.06598 9.3999 7.73348 8.99156 7.73348ZM9.00823 5.09182C8.5999 5.09182 8.2749 5.41682 8.2749 5.82515C8.2749 6.22432 8.5999 6.55015 8.99156 6.55015C9.40823 6.55015 9.73323 6.22432 9.73323 5.82515C9.73323 5.41682 9.40823 5.09182 9.00823 5.09182Z"/>
</svg>
