<svg width="20" height="16" viewBox="0 0 20 16" fill="none" xmlns="http://www.w3.org/2000/svg">
<path d="M16.6987 12.0475C18.825 10.15 20 8 20 8C20 8 16.25 1.125 10 1.125C8.79949 1.12913 7.61256 1.37928 6.5125 1.86L7.475 2.82375C8.28429 2.52894 9.13868 2.3771 10 2.375C12.65 2.375 14.8487 3.835 16.46 5.44625C17.2354 6.22586 17.9306 7.08141 18.535 8C18.4625 8.10875 18.3825 8.22875 18.2912 8.36C17.8725 8.96 17.2537 9.76 16.46 10.5538C16.2537 10.76 16.0387 10.9638 15.8137 11.1613L16.6987 12.0475Z" fill="#B4CFEE"/>
<path d="M14.1212 9.47C14.4002 8.6898 14.4518 7.84643 14.2702 7.03803C14.0886 6.22962 13.6811 5.48941 13.0952 4.90352C12.5093 4.31764 11.7691 3.91017 10.9607 3.72854C10.1523 3.5469 9.30895 3.59856 8.52875 3.8775L9.5575 4.90625C10.0379 4.83749 10.5277 4.88156 10.9881 5.03495C11.4485 5.18835 11.8668 5.44687 12.21 5.79001C12.5531 6.13316 12.8116 6.55151 12.965 7.01191C13.1184 7.47231 13.1625 7.96211 13.0937 8.4425L14.1212 9.47ZM10.4425 11.0938L11.47 12.1213C10.6898 12.4002 9.84643 12.4519 9.03803 12.2702C8.22962 12.0886 7.48941 11.6811 6.90352 11.0952C6.31764 10.5093 5.91018 9.76913 5.72854 8.96073C5.5469 8.15232 5.59856 7.30895 5.8775 6.52875L6.90625 7.5575C6.83749 8.03789 6.88156 8.52769 7.03495 8.98809C7.18835 9.44849 7.44687 9.86684 7.79001 10.21C8.13316 10.5531 8.55151 10.8116 9.01191 10.965C9.47231 11.1184 9.96211 11.1625 10.4425 11.0938V11.0938Z" fill="#B4CFEE"/>
<path d="M4.1875 4.8375C3.9625 5.0375 3.74625 5.24 3.54 5.44625C2.76456 6.22586 2.0694 7.08141 1.465 8L1.70875 8.36C2.1275 8.96 2.74625 9.76 3.54 10.5538C5.15125 12.165 7.35125 13.625 10 13.625C10.895 13.625 11.7375 13.4588 12.525 13.175L13.4875 14.14C12.3874 14.6207 11.2005 14.8708 10 14.875C3.75 14.875 0 8 0 8C0 8 1.17375 5.84875 3.30125 3.9525L4.18625 4.83875L4.1875 4.8375ZM17.0575 15.9425L2.0575 0.9425L2.9425 0.0574999L17.9425 15.0575L17.0575 15.9425Z" fill="#B4CFEE"/>
</svg>
