<?xml version="1.0" encoding="utf-8"?><!DOCTYPE svg PUBLIC "-//W3C//DTD SVG 1.1//EN" "http://www.w3.org/Graphics/SVG/1.1/DTD/svg11.dtd"><svg viewBox="0 0 510 510" xmlns="http://www.w3.org/2000/svg" xmlns:xlink="http://www.w3.org/1999/xlink"><style>:root>svg{display:none}:root>svg:target{display:block}</style><svg fill="none" viewBox="0 0 18 21" id="bell" xmlns="http://www.w3.org/2000/svg"><path d="M6.963 17.545c.5-.106 3.546-.106 4.046 0 .428.099.89.33.89.833-.025.48-.306.904-.695 1.174a3.634 3.634 0 01-1.713.732 3.795 3.795 0 01-1.008 0 3.617 3.617 0 01-1.714-.733c-.39-.269-.67-.694-.695-1.173 0-.504.462-.734.89-.833zM9.045.317c2.08 0 4.205.987 5.467 2.625.82 1.054 1.195 2.108 1.195 3.745v.426c0 1.256.332 1.997 1.063 2.85.553.628.73 1.435.73 2.31 0 .874-.287 1.704-.863 2.378a4.536 4.536 0 01-2.9 1.413c-1.571.134-3.143.247-4.736.247-1.595 0-3.166-.068-4.737-.247a4.532 4.532 0 01-2.9-1.413A3.616 3.616 0 01.5 12.273c0-.875.178-1.682.73-2.31.754-.853 1.064-1.594 1.064-2.85v-.426c0-1.682.42-2.781 1.283-3.858C4.861 1.259 6.919.317 8.956.317h.09z" fill="#6484AA"/></svg><svg viewBox="0 0 510 510" id="block" xmlns="http://www.w3.org/2000/svg"><path d="M255 0C114.75 0 0 114.75 0 255s114.75 255 255 255 255-114.75 255-255S395.25 0 255 0zM51 255c0-112.2 91.8-204 204-204 45.9 0 89.25 15.3 124.95 43.35l-285.6 285.6C66.3 344.25 51 300.9 51 255zm204 204c-45.9 0-89.25-15.3-124.95-43.35l285.6-285.6C443.7 165.75 459 209.1 459 255c0 112.2-91.8 204-204 204z"/></svg><svg id="calendar" version="1.1" viewBox="0 0 64 64" xml:space="preserve" xmlns="http://www.w3.org/2000/svg"><style>.cst0{fill:#134563}</style><g id="cIcon-Calendar" transform="translate(30 478)"><path class="cst0" d="M19.6-424h-35.2c-2.4 0-4.4-2-4.4-4.4v-32.3c0-2.4 1.6-4.4 3.7-4.4h2.2v2.9h-2.2c-.3 0-.7.6-.7 1.5v32.3c0 .8.7 1.5 1.5 1.5h35.2c.8 0 1.5-.7 1.5-1.5v-32.3c0-.9-.5-1.5-.7-1.5h-2.2v-2.9h2.2c2 0 3.7 2 3.7 4.4v32.3C24-426 22-424 19.6-424" id="cFill-133"/><path class="cst0" d="M-9.7-459.2c-.8 0-1.5-.7-1.5-1.5v-5.9c0-.8.7-1.5 1.5-1.5s1.5.7 1.5 1.5v5.9c-.1.8-.7 1.5-1.5 1.5" id="cFill-134"/><path class="cst0" d="M13.7-459.2c-.8 0-1.5-.7-1.5-1.5v-5.9c0-.8.7-1.5 1.5-1.5s1.5.7 1.5 1.5v5.9c0 .8-.7 1.5-1.5 1.5" id="cFill-135"/><path class="cst0" id="cFill-136" d="M-5.3-465.1H9.3v3H-5.3z"/><path class="cst0" id="cFill-137" d="M-17.1-456.3h38.2v3h-38.2z"/><path class="cst0" id="cFill-138" d="M15.2-450.4h2.9v2.9h-2.9z"/><path class="cst0" id="cFill-139" d="M9.3-450.4h3v2.9h-3z"/><path class="cst0" id="cFill-140" d="M3.5-450.4h2.9v2.9H3.5z"/><path class="cst0" id="cFill-141" d="M-2.4-450.4H.5v2.9h-2.9z"/><path class="cst0" id="cFill-142" d="M-8.3-450.4h3v2.9h-3z"/><path class="cst0" id="cFill-143" d="M15.2-444.5h2.9v2.9h-2.9z"/><path class="cst0" id="cFill-144" d="M9.3-444.5h3v2.9h-3z"/><path class="cst0" id="cFill-145" d="M3.5-444.5h2.9v2.9H3.5z"/><path class="cst0" id="cFill-146" d="M-2.4-444.5H.5v2.9h-2.9z"/><path class="cst0" id="cFill-147" d="M-8.3-444.5h3v2.9h-3z"/><path class="cst0" id="cFill-148" d="M-14.1-444.5h2.9v2.9h-2.9z"/><path class="cst0" id="cFill-149" d="M15.2-438.7h2.9v3h-2.9z"/><path class="cst0" id="cFill-150" d="M9.3-438.7h3v3h-3z"/><path class="cst0" id="cFill-151" d="M3.5-438.7h2.9v3H3.5z"/><path class="cst0" id="cFill-152" d="M-2.4-438.7H.5v3h-2.9z"/><path class="cst0" id="cFill-153" d="M-8.3-438.7h3v3h-3z"/><path class="cst0" id="cFill-154" d="M-14.1-438.7h2.9v3h-2.9z"/><path class="cst0" id="cFill-155" d="M9.3-432.8h3v2.9h-3z"/><path class="cst0" id="cFill-156" d="M3.5-432.8h2.9v2.9H3.5z"/><path class="cst0" id="cFill-157" d="M-2.4-432.8H.5v2.9h-2.9z"/><path class="cst0" id="cFill-158" d="M-8.3-432.8h3v2.9h-3z"/><path class="cst0" id="cFill-159" d="M-14.1-432.8h2.9v2.9h-2.9z"/></g></svg><svg viewBox="0 0 18 18" id="db" xmlns="http://www.w3.org/2000/svg"><path d="M12.891.667c2.834 0 4.434 1.607 4.443 4.442v7.783c0 2.833-1.609 4.442-4.443 4.442H5.11c-2.835 0-4.442-1.609-4.442-4.442V5.109C.667 2.274 2.274.667 5.109.667h7.782zM9.417 4.109a.7.7 0 00-1.068.658v8.492a.702.702 0 00.692.625c.36 0 .658-.267.692-.625V4.767a.68.68 0 00-.316-.658zM5.525 6.842a.686.686 0 00-.733 0 .7.7 0 00-.325.658v5.759a.688.688 0 00.69.625c.36 0 .66-.267.692-.625V7.5a.702.702 0 00-.324-.658zm7.716 3.025a.699.699 0 00-.74 0 .671.671 0 00-.317.658v2.734a.689.689 0 00.691.625c.35 0 .65-.267.692-.625v-2.734a.695.695 0 00-.326-.658z"/></svg><svg viewBox="0 0 16 18" id="home" xmlns="http://www.w3.org/2000/svg"><path d="M5.612 16.311v-2.548c0-.65.531-1.178 1.187-1.178h2.395c.314 0 .616.124.839.345.222.221.347.52.347.833v2.548c-.002.27.105.53.297.723.192.191.453.3.725.3h1.635a2.883 2.883 0 002.036-.833c.54-.535.844-1.262.844-2.02V7.223a2.06 2.06 0 00-.746-1.585L9.61 1.23a2.581 2.581 0 00-3.29.06L.89 5.636a2.062 2.062 0 00-.806 1.585v7.252a2.87 2.87 0 002.88 2.86H4.56c.566 0 1.026-.454 1.03-1.015l.022-.008z"/></svg><svg viewBox="0 0 18 18" id="logs" xmlns="http://www.w3.org/2000/svg"><path d="M12.617.666c2.825 0 4.716 1.983 4.716 4.933v6.81c0 2.941-1.891 4.924-4.716 4.924H5.392c-2.825 0-4.725-1.983-4.725-4.924v-6.81c0-2.95 1.9-4.933 4.725-4.933h7.225zM8.992 7.733c-.4 0-.725.333-.725.734v3.683c0 .4.325.725.725.725a.727.727 0 00.733-.725V8.467c0-.401-.325-.734-.733-.734zm.016-2.641a.73.73 0 00-.733.733.73.73 0 10.733-.733z"/></svg><svg viewBox="0 0 18 16" id="menu" xmlns="http://www.w3.org/2000/svg"><path d="M14.468 9.683c1.583 0 2.865 1.26 2.865 2.816 0 1.555-1.282 2.816-2.865 2.816-1.583 0-2.866-1.261-2.866-2.816s1.283-2.816 2.866-2.816zm-7.065 1.615c.693 0 1.256.553 1.256 1.235 0 .68-.563 1.234-1.256 1.234h-5.48a1.247 1.247 0 01-1.256-1.234c0-.682.563-1.235 1.256-1.235h5.48zM3.533.5c1.583 0 2.865 1.26 2.865 2.815 0 1.556-1.282 2.817-2.866 2.817C1.95 6.132.667 4.87.667 3.315.667 1.761 1.95.5 3.532.5zm12.545 1.582c.692 0 1.255.553 1.255 1.233 0 .682-.563 1.235-1.255 1.235h-5.48a1.246 1.246 0 01-1.256-1.235c0-.68.563-1.233 1.256-1.233h5.48z"/></svg><svg fill="none" viewBox="0 0 20 18" id="message" xmlns="http://www.w3.org/2000/svg"><path d="M14.94 0A5.057 5.057 0 0120 5.05v7.9c0 2.79-2.27 5.05-5.06 5.05H5.06A5.057 5.057 0 010 12.95v-7.9A5.05 5.05 0 015.06 0h9.88zm1.13 5.2a.76.76 0 00-.56.2L11 9a1.566 1.566 0 01-2 0L4.5 5.4a.76.76 0 00-1 .07c-.27.27-.3.7-.07 1l.13.13 4.55 3.55a3.143 3.143 0 003.91 0l4.51-3.61.08-.08a.773.773 0 00-.01-1 .84.84 0 00-.53-.26z" fill="#6484AA"/></svg><svg fill="none" viewBox="0 0 16 16" id="search" xmlns="http://www.w3.org/2000/svg"><path d="M11.742 10.344a6.5 6.5 0 10-1.397 1.398h-.001c.03.04.062.078.098.115l3.85 3.85a1 1 0 001.415-1.414l-3.85-3.85a1.004 1.004 0 00-.115-.1v.001zM12 6.5a5.5 5.5 0 11-11 0 5.5 5.5 0 0111 0z" fill="#9AB1CC"/></svg><svg viewBox="0 0 16 18" id="settings" xmlns="http://www.w3.org/2000/svg"><path d="M8.598.667c.63 0 1.2.35 1.515.866.154.25.256.559.23.884-.017.25.06.5.196.733.435.708 1.397.975 2.146.575a1.76 1.76 0 012.393.633l.571.984a1.69 1.69 0 01-.63 2.358c-.724.425-.98 1.367-.545 2.083.136.225.29.417.528.534.298.158.528.408.69.658.315.517.29 1.15-.017 1.708l-.597 1a1.775 1.775 0 01-1.507.867c-.298 0-.63-.083-.903-.25-.221-.142-.476-.192-.749-.192a1.59 1.59 0 00-1.575 1.517c0 .958-.784 1.708-1.763 1.708H7.422c-.988 0-1.771-.75-1.771-1.708-.017-.825-.724-1.517-1.567-1.517-.281 0-.537.05-.75.192-.272.167-.613.25-.902.25-.613 0-1.201-.333-1.516-.867l-.588-1c-.315-.541-.332-1.191-.017-1.708.136-.25.392-.5.682-.658.238-.117.391-.309.536-.534.426-.716.17-1.658-.553-2.083a1.703 1.703 0 01-.63-2.358l.57-.984a1.77 1.77 0 012.401-.633c.741.4 1.704.133 2.138-.575.136-.233.213-.483.196-.733a1.487 1.487 0 01.238-.884c.316-.516.886-.85 1.508-.866h1.2zM8.01 6.65c-1.337 0-2.419 1.05-2.419 2.358 0 1.309 1.082 2.35 2.419 2.35s2.393-1.041 2.393-2.35c0-1.308-1.056-2.358-2.393-2.358z"/></svg><svg fill="none" viewBox="0 0 20 16" id="showPassword" xmlns="http://www.w3.org/2000/svg"><path d="M16.699 12.047C18.825 10.15 20 8 20 8s-3.75-6.875-10-6.875a8.785 8.785 0 00-3.487.735l.962.964A7.43 7.43 0 0110 2.375c2.65 0 4.849 1.46 6.46 3.071A16.42 16.42 0 0118.535 8c-.073.109-.152.229-.244.36-.419.6-1.037 1.4-1.831 2.194a13.7 13.7 0 01-.646.607l.885.886z" fill="#B4CFEE"/><path d="M14.121 9.47A4.375 4.375 0 008.53 3.877l1.028 1.03a3.125 3.125 0 013.537 3.536L14.12 9.47zm-3.678 1.624l1.027 1.027A4.375 4.375 0 015.877 6.53l1.03 1.029a3.125 3.125 0 003.536 3.536z" fill="#B4CFEE"/><path d="M4.188 4.838c-.225.2-.442.402-.648.608-.775.78-1.47 1.635-2.075 2.554l.244.36c.418.6 1.037 1.4 1.831 2.194 1.611 1.611 3.811 3.071 6.46 3.071.895 0 1.738-.166 2.525-.45l.963.965c-1.1.48-2.287.73-3.488.735C3.75 14.875 0 8 0 8s1.174-2.151 3.301-4.047l.885.886.002-.002zm12.87 11.105l-15-15 .885-.886 15 15-.886.886z" fill="#B4CFEE"/></svg><svg viewBox="0 0 14 8" id="spoiler_narrow" xmlns="http://www.w3.org/2000/svg"><path fill-rule="evenodd" clip-rule="evenodd" d="M.646.646a.5.5 0 01.708 0L7 6.293 12.646.646a.501.501 0 01.708.708l-6 6a.5.5 0 01-.708 0l-6-6a.5.5 0 010-.708z"/></svg><svg id="trash_basket" version="1.1" viewBox="0 0 64 64" xml:space="preserve" xmlns="http://www.w3.org/2000/svg"><style>.mst0{fill:#134563}</style><g id="mIcon-Trash" transform="translate(232 228)"><path class="mst0" id="mFill-6" d="M-207.5-205.1h3v24h-3z"/><path class="mst0" id="mFill-7" d="M-201.5-205.1h3v24h-3z"/><path class="mst0" id="mFill-8" d="M-195.5-205.1h3v24h-3z"/><path class="mst0" id="mFill-9" d="M-219.5-214.1h39v3h-39z"/><path class="mst0" d="M-192.6-212.6h-2.8v-3c0-.9-.7-1.6-1.6-1.6h-6c-.9 0-1.6.7-1.6 1.6v3h-2.8v-3c0-2.4 2-4.4 4.4-4.4h6c2.4 0 4.4 2 4.4 4.4v3" id="mFill-10"/><path class="mst0" d="M-191-172.1h-18c-2.4 0-4.5-2-4.7-4.4l-2.8-36 3-.2 2.8 36c.1.9.9 1.6 1.7 1.6h18c.9 0 1.7-.8 1.7-1.6l2.8-36 3 .2-2.8 36c-.2 2.5-2.3 4.4-4.7 4.4" id="mFill-11"/></g></svg><svg viewBox="0 0 24 24" id="unblock" xmlns="http://www.w3.org/2000/svg"><path fill-rule="evenodd" d="M12 2c5.523 0 10 4.477 10 10s-4.477 10-10 10S2 17.523 2 12 6.477 2 12 2zm-1.143 13.777l5.85-5.85a.999.999 0 10-1.414-1.414l-4.436 4.436-2.15-2.15a.999.999 0 10-1.414 1.414l3.564 3.564z"/></svg></svg>