<?xml version="1.0" encoding="utf-8"?><!DOCTYPE svg  PUBLIC '-//W3C//DTD SVG 1.1//EN'  'http://www.w3.org/Graphics/SVG/1.1/DTD/svg11.dtd'><svg viewBox="0 0 900 575" xmlns="http://www.w3.org/2000/svg" xmlns:xlink="http://www.w3.org/1999/xlink"><style>:root>svg{display:none}:root>svg:target{display:block}</style><svg fill="none" viewBox="0 0 39 26" id="Paypal" xmlns="http://www.w3.org/2000/svg"><path d="M1.712.755h34.735A1.7 1.7 0 0138.1 2.49v21.673a1.7 1.7 0 01-1.654 1.734H1.712a1.7 1.7 0 01-1.654-1.734V2.49A1.7 1.7 0 011.712.755z" fill="#F1F1F1"/><path d="M.47 25.305a1.78 1.78 0 01-.41-1.141V2.49A1.7 1.7 0 011.714.755h34.734c.422.001.826.168 1.126.464L.474 25.305H.47z" fill="#fff" fill-opacity=".73"/><path d="M14.706 18.72l1.3-2.35-.724-5.644h1.77l.287 3.34 1.733-3.34H20.9l-4.21 7.994h-1.984zm-5.553-4.216c.273-1.374 1.6-1.81 3.562-1.81.117-.61-.272-.764-.934-.741a4.867 4.867 0 00-1.694.393l.155-1.373a7.938 7.938 0 011.985-.35c1.226-.021 2.589.37 2.278 1.963l-.76 3.75h-1.77l.116-.568a2.226 2.226 0 01-1.582.676c-.84-.004-1.586-.55-1.355-1.944l-.001.004zm1.81-.087a.5.5 0 00.468.785.91.91 0 00.935-.742c.023-.168.056-.335.1-.5h-.448a1.199 1.199 0 00-1.054.453v.004zm-7.91 1.92l1.464-7.173h3.307a1.844 1.844 0 011.76 2.44 2.75 2.75 0 01-2.731 2.356H5.47l-.475 2.376H3.053zm2.693-3.75h.91a1.233 1.233 0 001.109-.982.718.718 0 00-.653-.98h-.95l-.416 1.961z" fill="#3284AE"/><path d="M26.37 14.5c.275-1.374 1.616-1.809 3.605-1.809.138-.612-.255-.763-.925-.741a5.224 5.224 0 00-1.734.392l.158-1.373a8.511 8.511 0 012.029-.348c1.24-.022 2.6.369 2.285 1.96l-.768 3.75h-1.773l.117-.566c-.43.429-1.01.672-1.617.676-.858 0-1.614-.546-1.378-1.941zm1.832-.087a.51.51 0 00.494.785.9.9 0 00.925-.74c.04-.175.06-.328.1-.5h-.433a1.24 1.24 0 00-1.088.454h.003zm3.636 1.918l1.467-7.194h1.82l-1.486 7.194h-1.8zm-11.569 0l1.463-7.171h3.3a1.849 1.849 0 011.756 2.44 2.749 2.749 0 01-2.744 2.355H22.68l-.494 2.375H20.27zm2.688-3.75h.887a1.252 1.252 0 001.128-.98.73.73 0 00-.672-.98h-.948l-.396 1.96z" fill="#3CA9C7"/></svg><svg fill="none" viewBox="0 0 25 25" id="Paypal-2" xmlns="http://www.w3.org/2000/svg"><path d="M9.974 7.415l.003.001a.492.492 0 01.482-.384h6.803c.008 0 .017-.004.025-.003-.145-2.39-2.169-3.497-3.955-3.497H6.529c-.24 0-.43.167-.482.388h-.003L3.071 17.437h.006c-.007.033-.02.063-.02.098 0 .276.226.495.506.495h4.075L9.974 7.415z" fill="#1565C0"/><path d="M17.289 7.029c.027.438-.003.914-.116 1.44-.647 2.998-2.985 4.558-5.875 4.558H9.12a.464.464 0 00-.444.27l-.879 4.025-.154.714H7.64l-.638 2.898h.007c-.007.033-.02.063-.02.098 0 .276.226.5.505.5h3.703l.007-.005a.496.496 0 00.477-.394l.009-.008.915-4.208s.063-.401.49-.401h2.11c2.89 0 5.251-1.553 5.899-4.551.728-3.38-1.707-4.924-3.815-4.936z" fill="#039BE5"/><path d="M10.46 7.032c-.24 0-.43.163-.482.384h-.003l-1.3 5.882a.464.464 0 01.444-.27h2.139c2.89 0 5.267-1.56 5.914-4.558a5.254 5.254 0 00.116-1.44c-.008-.002-.017.002-.025.002H10.46z" fill="#283593"/></svg><svg viewBox="0 0 900 575" fill-rule="evenodd" clip-rule="evenodd" stroke-linejoin="round" stroke-miterlimit="1.414" id="Visa" xmlns="http://www.w3.org/2000/svg"><g fill-rule="nonzero"><path fill="#fff" d="M0 3.292h900V575H0z"/><path fill="#fcb315" d="M14.988 482.105h870.009v78H14.987z"/><path fill="#0d357f" d="M14.988 18.288h870.009v78H14.987zM442.488 182.225l-45.859 214.396h-55.466l45.862-214.396h55.463zm233.35 138.438l29.2-80.513 16.796 80.513h-45.996zm61.917 75.958h51.283L744.23 182.225H696.92c-10.666 0-19.65 6.183-23.629 15.717l-83.229 198.68h58.254L659.88 364.6h71.15l6.725 32.021zm-144.8-69.996c.241-56.579-78.217-59.716-77.696-84.996.17-7.683 7.496-15.866 23.52-17.958 7.942-1.025 29.859-1.85 54.705 9.596l9.716-45.484c-13.35-4.825-30.52-9.475-51.883-9.475-54.833 0-93.408 29.125-93.717 70.867-.35 30.867 27.559 48.075 48.538 58.354 21.63 10.509 28.88 17.25 28.775 26.638-.15 14.383-17.254 20.75-33.17 20.992-27.905.433-44.076-7.542-56.968-13.55l-10.066 47c12.979 5.941 36.9 11.112 61.662 11.379 58.292 0 96.413-28.788 96.584-73.363zm-229.721-144.4l-89.871 214.396h-58.625l-44.23-171.104c-2.679-10.521-5.016-14.388-13.17-18.834-13.338-7.245-35.359-14.02-54.717-18.237l1.308-6.22h94.384c12.02 0 22.837 8 25.587 21.845l23.363 124.07 57.7-145.916h58.27z"/></g></svg><svg fill="none" viewBox="0 0 40 26" id="Western-union" xmlns="http://www.w3.org/2000/svg"><path d="M2.661.792h34.983a1.7 1.7 0 011.665 1.734v21.676a1.7 1.7 0 01-1.665 1.733H2.66a1.7 1.7 0 01-1.666-1.733V2.526A1.7 1.7 0 012.661.792z" fill="#353A40"/><path d="M23.684 17.356a1.47 1.47 0 01-.624-.606 2.041 2.041 0 01-.24-1.038 1.863 1.863 0 01.474-1.356 1.767 1.767 0 011.321-.484 1.79 1.79 0 011.336.477 1.82 1.82 0 01.47 1.335c.014.351-.055.702-.2 1.022a1.49 1.49 0 01-.593.62c-.297.158-.63.235-.967.223a2.176 2.176 0 01-.977-.193zm.406-2.417a1.63 1.63 0 000 1.552.726.726 0 001.068 0c.152-.247.219-.538.19-.826.022-.26-.049-.52-.2-.734a.668.668 0 00-.536-.231.65.65 0 00-.522.24zm-9.912 2.574a1.408 1.408 0 01-.5-.146 1.231 1.231 0 01-.368-.307 1.14 1.14 0 01-.229-.409 2.168 2.168 0 01-.1-.6v-2.118h1.071V16.1a.626.626 0 00.16.454.668.668 0 00.871 0 .63.63 0 00.158-.457V13.93h1.071v2.118c0 .204-.033.407-.1.6-.061.184-.164.35-.3.489-.12.13-.267.233-.43.3a2.134 2.134 0 01-.752.118 4.769 4.769 0 01-.55-.043h-.002zm15.14-.024l-1.3-1.952v1.952h-1.01v-3.555h1l1.308 1.966v-1.966h1.012v3.555h-1.01zm-9.979 0l-1.3-1.952v1.952h-1.01v-3.555h1l1.308 1.966v-1.966h1.012v3.555h-1.01zm1.77-.01v-3.548h1.08v3.549h-1.08zm-8.205-4.98a1.387 1.387 0 01-.387-.888l1.022-.065c.011.139.057.272.134.388a.563.563 0 00.474.217.516.516 0 00.355-.111.321.321 0 00.006-.5 1.365 1.365 0 00-.55-.206 2.31 2.31 0 01-1.007-.432.876.876 0 01-.3-.686c0-.184.055-.363.155-.517a1.03 1.03 0 01.467-.383c.273-.104.564-.152.855-.14.357-.023.713.066 1.016.255a1.102 1.102 0 01.416.805l-1.012.061a.56.56 0 00-.17-.35.536.536 0 00-.357-.108.425.425 0 00-.282.081.253.253 0 00-.095.2.2.2 0 00.08.154c.108.07.232.114.36.13.348.064.687.17 1.01.314.181.087.335.224.442.395.093.16.14.34.138.525.002.224-.063.443-.185.63a1.172 1.172 0 01-.517.439c-.265.107-.55.158-.836.15a1.7 1.7 0 01-1.232-.36v.002zm16.414.29l-1.3-1.953v1.953h-1.01V9.234h1l1.31 1.967V9.234h1.011v3.555h-1.01zm-3.875 0l-.574-1.087a.85.85 0 00-.195-.273.445.445 0 00-.264-.083h-.095v1.443h-1.079V9.234h1.79c.256-.01.512.02.76.087.174.057.324.17.425.323a1 1 0 01.161.576c.005.178-.038.354-.123.511a.978.978 0 01-.34.347 1.297 1.297 0 01-.377.142c.1.03.194.073.28.13.064.055.122.119.171.188.057.068.108.142.151.22l.52 1.03h-1.21zm-1.127-2.116h.453c.096-.007.191-.023.284-.048a.289.289 0 00.174-.111.335.335 0 00.068-.207.331.331 0 00-.107-.265.638.638 0 00-.4-.091h-.472v.722zm-4.6 2.116V9.234h2.878v.759h-1.8v.565h1.672v.726h-1.672v.7h1.855v.805h-2.933zm-2.652 0v-2.677H15.97v-.878h3.265v.878h-1.1v2.677h-1.07zm-7.865 0V9.234h2.878v.759h-1.8v.565h1.671v.726H10.27v.7h1.853v.805H9.2zm-2.167 0l-.609-2.24-.607 2.24H4.763L3.99 9.234h1.02l.367 1.99.538-1.99h1.016l.54 1.988.366-1.988h1.015l-.766 3.555H7.032zM35.12 17.551v-8.38h1.2v8.38h-1.2zm-2.99 0v-8.38h1.2v8.38h-1.2z" fill="#ECD345"/></svg><svg fill="none" viewBox="0 0 21 21" id="bank" xmlns="http://www.w3.org/2000/svg"><path d="M1.562 4.907l9.089-3.375 9.089 3.375M1.562 19.532H19.74M10.65 15.032v-6.75M17.468 15.032v-6.75M3.834 15.032v-6.75" stroke="#40BFFF" stroke-width="2" stroke-linecap="round" stroke-linejoin="round"/></svg><svg viewBox="0 0 64 54" id="cake" xmlns="http://www.w3.org/2000/svg"><g stroke="#6B6C6E" stroke-width="2" fill="pink" fill-rule="evenodd"><path d="M61 29v22c0 1.1-.9 2-2 2H5c-1.1 0-2-.9-2-2V29"/><path d="M48 30.8c-8 5-8.2-.7-16-.7-7.8 0-10 5.7-17 .7C2.1 36 1 23 1 23c0-1.1.4-4 2-4 0 0 5-2 29.1-2S61 19 61 19c1.6 0 2 2.9 2 4 0 0-.9 12.9-15 7.8h0zM3.3 38l57.6-.055M3.3 45l57.6-.055M10 17.9V11M54 17.9V11M43 16.9V11M32 16.9V11M21 16.9V11M12.9 7.8c0 1.7-1.3 3-3 3-1.6 0-3-1.4-3-3 0-1.7 1.3-6.8 3-6.8s3 5.1 3 6.8h0zM24 8c0 1.7-1.3 3.1-3 3.1S18 9.7 18 8c0-1.7 1.3-7 3-7s3 5.3 3 7h0zM35 8c0 1.7-1.3 3.1-3 3.1S29 9.7 29 8c0-1.7 1.3-7 3-7s3 5.3 3 7h0zM45.9 8c0 1.7-1.3 3.1-3 3.1-1.6 0-3-1.4-3-3.1 0-1.7 1.3-7 3-7s3 5.3 3 7h0zM56.9 8c0 1.7-1.3 3.1-3 3.1-1.6 0-3-1.4-3-3.1 0-1.7 1.3-7 3-7s3 5.2 3 7h0z"/></g></svg><svg fill="none" viewBox="0 0 13 10" id="checkMark" xmlns="http://www.w3.org/2000/svg"><path d="M4.192 9.32L.278 5.43a.571.571 0 01-.164-.422c0-.171.055-.312.164-.421l.868-.844a.51.51 0 01.398-.188c.172 0 .32.063.445.188l2.625 2.625L10.24.743a.583.583 0 01.422-.188c.172 0 .313.063.422.188l.867.844c.11.109.164.25.164.421a.571.571 0 01-.164.422L5.036 9.32a.535.535 0 01-.422.188.535.535 0 01-.422-.187z" fill="#40BFFF"/></svg><svg fill="none" viewBox="0 0 21 17" id="creditCard" xmlns="http://www.w3.org/2000/svg"><path d="M19.74 1.782H1.562v13.5H19.74v-13.5zM1.562 6.282H19.74" stroke="#40BFFF" stroke-width="2" stroke-linecap="round" stroke-linejoin="round"/></svg><svg fill="none" viewBox="0 0 26 26" id="exit" xmlns="http://www.w3.org/2000/svg"><path opacity=".5" d="M18.205 13.222l7.102 7.102c.426.426.64.994.64 1.562 0 .64-.214 1.208-.64 1.634l-1.562 1.562c-.498.427-1.066.64-1.634.64-.64 0-1.136-.213-1.562-.64l-7.103-7.102-7.102 7.102c-.426.427-.994.64-1.562.64-.64 0-1.208-.213-1.634-.64L1.585 23.52c-.426-.426-.639-.994-.639-1.634 0-.568.213-1.136.64-1.562l7.102-7.102-7.103-7.103C1.16 5.693.946 5.196.946 4.557c0-.568.213-1.137.64-1.634l1.562-1.562c.426-.426.994-.64 1.634-.64.568 0 1.136.214 1.562.64l7.102 7.102 7.103-7.102c.426-.426.923-.64 1.562-.64.568 0 1.136.214 1.634.64l1.562 1.562c.426.497.64 1.066.64 1.634 0 .639-.214 1.136-.64 1.562l-7.102 7.103z" fill="#40BFFF"/></svg><svg viewBox="0 0 533.333 533.333" id="exit-profile" xmlns="http://www.w3.org/2000/svg"><path d="M416.667 333.333v-66.666H250V200h166.667v-66.667l100 100-100 100zM383.333 300v133.333H216.667v100l-200-100V0h366.667v166.667H350V33.333H83.333L216.667 100v300H350V300h33.333z"/></svg><svg viewBox="0 0 9 16" id="facebook" xmlns="http://www.w3.org/2000/svg"><path d="M.808 8.285h1.658v6.828a.244.244 0 00.244.244h2.812a.244.244 0 00.244-.244V8.317h1.907a.244.244 0 00.242-.216l.29-2.514a.244.244 0 00-.242-.272h-2.2V3.74c0-.475.256-.716.76-.716h1.436a.244.244 0 00.244-.244V.473a.244.244 0 00-.24-.246H5.891a3.792 3.792 0 00-2.48.935 2.6 2.6 0 00-.865 2.311v1.843H.805a.244.244 0 00-.244.244v2.481a.244.244 0 00.247.244z"/></svg><svg fill="none" viewBox="0 0 19 17" id="favorite" xmlns="http://www.w3.org/2000/svg"><path fill-rule="evenodd" clip-rule="evenodd" d="M12.822 2.961a3.344 3.344 0 012.5 5.561c-.613.691-5.84 5.584-5.84 5.584s-5.238-4.893-5.85-5.595a3.3 3.3 0 01-.837-2.207 3.344 3.344 0 016.687 0 3.344 3.344 0 013.344-3.344l-.004.001zm.004-2.23a5.543 5.543 0 00-3.344 1.115 5.573 5.573 0 00-7.519 8.141c.626.718 4.75 4.578 6 5.744a2.229 2.229 0 003.045 0c1.244-1.165 5.35-5.015 5.984-5.732a5.573 5.573 0 00-4.17-9.267l.004-.001z" fill="#33A0FF"/></svg><svg fill="none" viewBox="0 0 20 20" id="filter" xmlns="http://www.w3.org/2000/svg"><path d="M12.25 15.625V10L19 1H1l6.75 9v9"/></svg><svg fill="none" viewBox="0 0 40 26" id="mastercard" xmlns="http://www.w3.org/2000/svg"><path d="M2.529.594h34.973a1.7 1.7 0 011.665 1.734v21.674a1.699 1.699 0 01-1.665 1.734H2.529a1.7 1.7 0 01-1.665-1.734V2.328A1.7 1.7 0 012.529.594z" fill="#5870BE"/><path d="M17.619 13.16a8.978 8.978 0 1117.956.004 8.978 8.978 0 01-17.956-.003z" fill="#FFAF38"/><path d="M12.84 22.14a8.979 8.979 0 117.19-14.36h-1.2v.6h1.613c.121.191.235.389.341.589H18.23v.6h2.843c.088.2.167.4.237.6h-3.68v.6h3.868a9.033 9.033 0 01-.192 5.389H17.63v.6h3.44c-.09.207-.188.4-.286.59H18.23v.6h2.206c-.133.21-.272.412-.413.601H18.83v.6h.7a8.993 8.993 0 01-6.69 2.99z" fill="#E63737"/><path d="M2.989 14.813l.546-4.26.849.109.62 3.145c.058.293.099.512.123.657.069-.149.174-.367.315-.654l1.4-2.833.758.098-.546 4.26-.544-.07.458-3.566-1.696 3.407-.508-.065-.767-3.785-.465 3.627-.543-.07zm6.97.507c-.215.14-.417.232-.605.277a1.617 1.617 0 01-.589.028c-.339-.043-.589-.16-.75-.347a.831.831 0 01-.191-.672.876.876 0 01.464-.667 1.3 1.3 0 01.4-.123 3.78 3.78 0 01.474-.019c.429.004.748-.016.956-.06a6.65 6.65 0 00.02-.136c.028-.213-.002-.37-.09-.47-.118-.135-.31-.22-.573-.253-.246-.032-.434-.012-.563.06-.127.07-.233.212-.317.423l-.503-.135c.075-.213.174-.38.298-.5a1 1 0 01.502-.251c.21-.048.449-.055.714-.02.264.033.474.092.63.175a.846.846 0 01.333.282.818.818 0 01.118.375c.006.091-.006.253-.036.486l-.09.697c-.062.486-.09.796-.086.928.007.131.036.26.086.387l-.546-.07a1.117 1.117 0 01-.056-.395zm.106-1.173c-.2.053-.493.082-.88.088a1.992 1.992 0 00-.469.046.455.455 0 00-.333.382.45.45 0 00.113.37c.094.106.243.172.447.198.201.026.386.006.554-.061a.83.83 0 00.392-.32c.072-.11.122-.281.152-.511l.024-.192zm1.053.773l.528-.015c.002.21.062.38.18.507.12.128.298.207.537.238.24.03.424.005.553-.077a.447.447 0 00.219-.324.32.32 0 00-.119-.298c-.065-.056-.236-.138-.511-.246-.372-.146-.627-.264-.768-.353a.803.803 0 01-.299-.336.799.799 0 01-.06-.43.802.802 0 01.142-.37.865.865 0 01.296-.26c.09-.05.206-.085.35-.108.148-.025.301-.026.462-.006.242.031.45.093.623.186a.87.87 0 01.37.337c.072.13.112.296.12.5l-.52.004a.562.562 0 00-.156-.398c-.1-.103-.25-.168-.454-.194-.24-.03-.417-.013-.53.053-.113.066-.176.153-.19.26a.291.291 0 00.04.19.465.465 0 00.184.166c.05.026.198.09.444.193.358.146.605.26.742.343a.78.78 0 01.31.318c.069.13.091.285.068.463a.887.887 0 01-.217.475.998.998 0 01-.485.3 1.631 1.631 0 01-.667.042c-.4-.051-.696-.174-.886-.368-.188-.193-.29-.457-.306-.792zm4.269 1.008l.016.472c-.151.012-.285.01-.401-.004-.19-.024-.333-.073-.43-.147a.51.51 0 01-.19-.264c-.03-.104-.026-.313.015-.627l.227-1.775-.383-.05.052-.406.384.049.098-.764.56-.247-.138 1.078.526.067-.052.407-.526-.068-.232 1.805a.965.965 0 00-.01.291c.013.045.039.083.076.113.04.031.098.051.176.061.058.008.135.01.232.01zm2.694-.189l.532.137a1.33 1.33 0 01-.568.674c-.253.145-.558.194-.917.148-.451-.058-.792-.242-1.022-.553-.227-.313-.309-.72-.245-1.222.067-.52.252-.905.557-1.157.304-.253.669-.352 1.095-.297.413.053.732.237.957.551.226.315.306.727.24 1.236a4.6 4.6 0 01-.02.14l-2.302-.296c-.024.341.038.613.188.816.15.202.353.32.61.353a.807.807 0 00.51-.088c.15-.084.277-.23.385-.442zm-1.609-1.066l1.723.222c.01-.263-.03-.466-.122-.61a.808.808 0 00-.61-.385.843.843 0 00-.638.163c-.183.14-.3.343-.353.61zm2.676 2.214l.396-3.086.47.06-.06.468c.149-.204.278-.334.387-.39a.593.593 0 01.351-.062c.176.023.348.102.516.238l-.242.462a.755.755 0 00-.37-.163.498.498 0 00-.32.065.556.556 0 00-.232.26 2.053 2.053 0 00-.166.6l-.207 1.615-.523-.067zm5.286-.84l.545.215c-.177.447-.436.773-.775.978-.338.203-.728.276-1.172.219-.459-.059-.82-.2-1.085-.423a1.786 1.786 0 01-.553-.898 2.94 2.94 0 01-.077-1.17c.057-.444.19-.82.402-1.128.213-.309.486-.529.82-.66a2.13 2.13 0 011.068-.125c.426.055.77.209 1.033.463.263.255.426.586.49.993l-.572.06c-.059-.323-.173-.567-.343-.732-.17-.166-.397-.267-.682-.303-.327-.042-.612.001-.853.13-.239.128-.42.32-.543.574a2.551 2.551 0 00-.238.8c-.047.361-.035.685.035.97.072.282.21.505.416.667.206.163.438.26.698.294.316.04.595-.017.837-.17.242-.155.425-.406.549-.754zm3.065 1.524c-.215.14-.417.232-.606.277a1.62 1.62 0 01-.588.028c-.34-.044-.59-.16-.75-.347a.831.831 0 01-.192-.672.877.877 0 01.464-.667c.122-.061.255-.102.4-.123.106-.014.264-.02.475-.019.429.004.747-.016.956-.06a7.23 7.23 0 00.02-.136c.027-.213-.003-.37-.09-.47-.119-.135-.31-.22-.573-.253-.246-.032-.434-.012-.563.06-.127.07-.233.212-.317.423l-.503-.135c.075-.213.174-.38.297-.5a1 1 0 01.503-.251c.21-.048.449-.055.714-.02.263.033.473.092.63.175a.845.845 0 01.333.282.817.817 0 01.117.375c.007.091-.005.253-.035.486l-.09.697c-.062.486-.091.796-.086.928.006.131.035.26.086.387l-.546-.07a1.12 1.12 0 01-.056-.395zm.106-1.173c-.2.053-.493.082-.88.088a1.994 1.994 0 00-.47.046.457.457 0 00-.332.382.45.45 0 00.112.37c.095.106.244.172.447.198.202.026.387.006.555-.061a.83.83 0 00.392-.32c.072-.11.122-.281.152-.512l.024-.191zm1.138 1.72l.396-3.086.47.06-.06.468c.15-.203.278-.333.388-.39a.592.592 0 01.35-.062c.177.023.349.102.516.238l-.242.462a.755.755 0 00-.37-.162.499.499 0 00-.32.065.555.555 0 00-.232.26 2.052 2.052 0 00-.165.599l-.208 1.615-.523-.067zm3.99.512l.05-.39c-.235.282-.542.398-.922.349a1.227 1.227 0 01-.654-.29 1.364 1.364 0 01-.407-.629 2.005 2.005 0 01-.06-.861 2.2 2.2 0 01.26-.817c.136-.24.315-.412.537-.52.223-.107.46-.144.715-.111a1.034 1.034 0 01.797.534l.196-1.53.52.067-.547 4.26-.485-.062zm-1.456-1.752c-.05.395-.005.701.136.918.142.217.326.34.552.37a.743.743 0 00.617-.205c.185-.167.302-.443.352-.826.054-.423.012-.743-.125-.962a.757.757 0 00-1.184-.163c-.18.17-.296.459-.348.868z" fill="#fff"/></svg><svg fill="none" viewBox="0 0 23 23" id="rightNarrow" xmlns="http://www.w3.org/2000/svg"><path fill-rule="evenodd" clip-rule="evenodd" d="M11.374 22.333l1.594-1.548-8.452-8.452h17.969v-2.222H4.516l8.429-8.43-1.571-1.57L.263 11.22l11.11 11.112z" fill="#40BFFF"/></svg><svg fill="none" viewBox="0 0 24 24" id="short" xmlns="http://www.w3.org/2000/svg"><path d="M3 12h5.625M17.625 3v18L21 17.625M3 5h10.125M3 19h3.375M17.625 21l-3.375-3.375"/></svg><svg viewBox="0 0 15 16" id="star" xmlns="http://www.w3.org/2000/svg"><path d="M14.043 5.927L9.792 9.449l1.25 5.724-4.13-3.458-4.397 3.274 1.698-5.66-3.966-3.7 5.18-.04L7.375.029l1.504 5.635 5.165.263z"/></svg><svg fill="none" viewBox="0 0 190 190" id="successIcon" xmlns="http://www.w3.org/2000/svg"><g filter="url(#rfilter0_d_37_174)"><rect x="30" y="20.532" width="130" height="129" rx="56" fill="#40BFFF"/></g><path d="M75.139 85.927L88.98 99.365l27.685-26.875" stroke="#fff" stroke-width="6" stroke-linecap="round" stroke-linejoin="round"/><defs><filter id="rfilter0_d_37_174" x="0" y=".532" width="190" height="189" filterUnits="userSpaceOnUse" color-interpolation-filters="sRGB"><feFlood flood-opacity="0" result="BackgroundImageFix"/><feColorMatrix in="SourceAlpha" values="0 0 0 0 0 0 0 0 0 0 0 0 0 0 0 0 0 0 127 0" result="hardAlpha"/><feOffset dy="10"/><feGaussianBlur stdDeviation="15"/><feColorMatrix values="0 0 0 0 0.25098 0 0 0 0 0.74902 0 0 0 0 1 0 0 0 0.24 0"/><feBlend in2="BackgroundImageFix" result="effect1_dropShadow_37_174"/><feBlend in="SourceGraphic" in2="effect1_dropShadow_37_174" result="shape"/></filter></defs></svg><svg fill="none" viewBox="0 0 18 19" id="trolley" xmlns="http://www.w3.org/2000/svg"><path fill-rule="evenodd" clip-rule="evenodd" d="M14.44 12.878a2.221 2.221 0 002.176-1.792l1.115-5.573a2.23 2.23 0 00-2.18-2.666H4.45V1.732A1.115 1.115 0 003.338.618H1.124a1.115 1.115 0 000 2.229H2.24v11.145a2.229 2.229 0 102.22 2.229h7.765a2.22 2.22 0 102.22-2.229H4.457v-1.114h9.983zm1.115-7.8l-1.115 5.573H4.453V5.078h11.102z" fill="#33A0FF"/></svg><svg viewBox="0 0 16 13" id="twitter" xmlns="http://www.w3.org/2000/svg"><path d="M15.125 1.634c-.55.24-1.133.4-1.728.474A2.983 2.983 0 0014.717.45a6 6 0 01-1.9.726 3 3 0 00-5.192 2.05c-.002.23.021.46.07.685A8.49 8.49 0 011.512.773a3 3 0 00.922 4.009 2.962 2.962 0 01-1.355-.37v.034a3.014 3.014 0 002.4 2.948 2.994 2.994 0 01-.787.1 2.652 2.652 0 01-.568-.051 3.028 3.028 0 002.8 2.09A6.028 6.028 0 01.492 10.77a8.445 8.445 0 004.6 1.346A8.48 8.48 0 0013.63 3.58c0-.133 0-.261-.011-.388a5.984 5.984 0 001.506-1.558z"/></svg></svg>